<?xml version="1.0" encoding="UTF-8"?>
<svg version="1.1" xmlns="http://www.w3.org/2000/svg" width="512" height="512">
<path d="M0 0 C1.12468398 -0.00706559 2.24936796 -0.01413118 3.40813327 -0.02141088 C4.6439103 -0.0189958 5.87968732 -0.01658071 7.15291214 -0.01409245 C9.12192769 -0.02194746 9.12192769 -0.02194746 11.13072133 -0.02996117 C14.77756627 -0.04415633 18.42432604 -0.04580418 22.07119465 -0.04536426 C26.00316574 -0.04701115 29.9351016 -0.06007528 33.86705399 -0.07155704 C42.46625307 -0.09441649 51.06542748 -0.10232871 59.66465282 -0.10738349 C65.03376191 -0.11063949 70.40286381 -0.1171614 75.77196884 -0.12438488 C90.63669352 -0.14395225 105.50141152 -0.16035559 120.3661499 -0.16326141 C121.31756775 -0.16344898 122.26898559 -0.16363655 123.24923427 -0.16382981 C125.17800538 -0.16419606 127.10677648 -0.16455976 129.03554758 -0.16492092 C129.99299676 -0.16510373 130.95044594 -0.16528654 131.93690872 -0.16547489 C133.37483492 -0.16574572 133.37483492 -0.16574572 134.84181014 -0.16602201 C150.37527662 -0.16956374 165.90860448 -0.19658542 181.44202289 -0.23397278 C197.38893059 -0.27204828 213.33576949 -0.29141884 229.28272367 -0.29172093 C238.2367835 -0.29230568 247.19067799 -0.30080898 256.14469528 -0.32971859 C263.76922129 -0.3542224 271.39352166 -0.36152221 279.01807639 -0.34647106 C282.90777223 -0.33929791 286.79702241 -0.34017648 290.6866684 -0.36288166 C294.90539942 -0.38727169 299.12311488 -0.3728474 303.34187698 -0.35466862 C304.56873112 -0.36786858 305.79558527 -0.38106855 307.0596168 -0.39466852 C315.09285482 -0.31548622 320.22158956 1.08328124 326.01587558 6.73812968 C329.92568774 11.11191169 331.75496923 15.27797434 331.74187088 21.11328793 C331.74599487 22.53717579 331.74599487 22.53717579 331.75020218 23.98982906 C331.74301163 25.0191354 331.73582108 26.04844173 331.72841263 27.10893917 C331.72870468 28.20206921 331.72899673 29.29519924 331.72929764 30.42145443 C331.72790558 34.0304985 331.71234992 37.63933551 331.69667435 41.24834347 C331.69294378 43.75226383 331.69009702 46.25618565 331.68809891 48.76010799 C331.68124584 54.67444147 331.6654868 60.58870864 331.64539993 66.50300807 C331.62082679 73.89922645 331.61010464 81.29545407 331.5990181 88.69170284 C331.57757402 101.88119363 331.54382688 115.07062322 331.50136185 128.26006222 C332.938022 128.22078609 332.938022 128.22078609 334.4037056 128.18071651 C337.98923858 128.08957095 341.57467127 128.03258301 345.16102982 127.98540401 C346.70710396 127.9604049 348.25306167 127.9263932 349.79872513 127.88286495 C365.29917783 127.45757816 365.29917783 127.45757816 371.06825638 131.8843298 C375.82201721 136.44777822 379.2161772 140.69442326 379.75863075 147.47667313 C379.76198244 148.70056338 379.76533413 149.92445364 379.76878738 151.18543148 C379.7733185 151.87009587 379.77784961 152.55476027 379.78251803 153.26017207 C379.79514887 155.54772091 379.79354254 157.83503126 379.79188919 160.12261105 C379.7978753 161.76552288 379.80468104 163.40843191 379.81224442 165.05133724 C379.829904 169.51012886 379.8345998 173.9688437 379.83587599 178.4276669 C379.83729826 181.21495851 379.84156931 184.00223064 379.84687042 186.7895174 C379.8653711 196.51807423 379.87354105 206.24657627 379.87196732 215.97515011 C379.87076615 225.03595667 379.89186341 234.09652494 379.92345464 243.15727121 C379.94962921 250.942582 379.9603341 258.72781502 379.9590565 266.51316947 C379.95854718 271.16024255 379.96421365 275.80710387 379.9854126 280.45413303 C380.00481471 284.82662992 380.00490607 289.19871348 379.99037933 293.57122517 C379.98829252 295.17236976 379.99298455 296.77354035 380.00510025 298.37464046 C380.07050145 307.6191835 380.07415041 314.96094706 373.7552681 322.28349972 C373.19710403 322.72951534 372.63893997 323.17553097 372.06386185 323.63506222 C371.50827591 324.09654659 370.95268997 324.55803097 370.3802681 325.03349972 C365.64441643 328.12509519 361.62089244 328.50005848 356.0130806 328.45537472 C354.95828255 328.45112988 354.95828255 328.45112988 353.88217545 328.44679928 C351.65089293 328.43566373 349.42002168 328.41057219 347.18886185 328.38506222 C345.66998746 328.37502382 344.15110675 328.36589947 342.63222122 328.35771847 C338.92180263 328.33574635 335.21162243 328.30126269 331.50136185 328.26006222 C331.5124649 329.55774532 331.52356796 330.85542843 331.53500748 332.19243526 C331.63645304 344.43369852 331.71136099 356.67487626 331.76042271 368.91646481 C331.78649403 375.20972395 331.82184828 381.5026432 331.87855911 387.79570675 C331.93296497 393.87114958 331.96280092 399.94626588 331.97574806 406.02193356 C331.9849724 408.33755793 332.00298552 410.65316484 332.03001213 412.96864986 C332.06641498 416.21721899 332.0713023 419.46444629 332.0689888 422.71318722 C332.08696518 423.66625256 332.10494156 424.61931789 332.12346268 425.601264 C332.06832028 432.77741072 330.07068127 437.66464495 324.98771 442.78478146 C320.41991297 446.76697199 317.0413647 448.50800794 311.00272369 448.52012444 C309.87803972 448.52719003 308.75335574 448.53425562 307.59459043 448.54153532 C306.3588134 448.53912023 305.12303637 448.53670515 303.84981155 448.53421688 C302.53713452 448.53945356 301.22445749 448.54469024 299.87200236 448.5500856 C296.22515743 448.56428076 292.57839765 448.56592861 288.93152905 448.5654887 C284.99955796 448.56713558 281.06762209 448.58019972 277.13566971 448.59168148 C268.53647063 448.61454093 259.93729621 448.62245314 251.33807087 448.62750793 C245.96896179 448.63076393 240.59985988 448.63728583 235.23075485 448.64450932 C220.36603018 448.66407668 205.50131218 448.68048002 190.63657379 448.68338585 C189.68515595 448.68357342 188.73373811 448.68376099 187.75348942 448.68395424 C185.82471832 448.68432049 183.89594721 448.68468419 181.96717611 448.68504535 C180.53100235 448.68531957 180.53100235 448.68531957 179.06581497 448.68559933 C177.62788877 448.68587015 177.62788877 448.68587015 176.16091356 448.68614645 C160.62744707 448.68968817 145.09411921 448.71670985 129.5607008 448.75409722 C113.6137931 448.79217272 97.6669542 448.81154327 81.72000003 448.81184536 C72.76594019 448.81243011 63.81204571 448.82093341 54.85802841 448.84984303 C47.2335024 448.87434683 39.60920204 448.88164664 31.9846473 448.8665955 C28.09495146 448.85942235 24.20570128 448.86030092 20.3160553 448.8830061 C16.09732427 448.90739613 11.87960882 448.89297183 7.66084671 448.87479305 C5.8205655 448.894593 5.8205655 448.894593 3.94310689 448.91479295 C-4.06809571 448.83582786 -9.28447321 447.47131697 -15.01315188 441.74659437 C-18.59828984 437.66460244 -20.75219916 434.2485652 -20.73914719 428.7928381 C-20.74189651 427.90385326 -20.74464584 427.01486843 -20.74747849 426.09894466 C-20.74028793 425.13149822 -20.73309738 424.16405178 -20.72568893 423.16728878 C-20.72598099 422.14257977 -20.72627304 421.11787075 -20.72657394 420.06210995 C-20.72518054 416.67488292 -20.70961861 413.28787582 -20.69395065 409.90068722 C-20.69022057 407.55227942 -20.68737357 405.20387007 -20.68537521 402.85546017 C-20.67773843 396.67406068 -20.65808946 390.49275515 -20.63596725 384.31139278 C-20.61550986 378.00393094 -20.60637372 371.69645392 -20.5962944 365.38896847 C-20.57484369 353.0126251 -20.54070712 340.63635147 -20.49863815 328.26006222 C-21.42611862 328.28100948 -22.35359909 328.30195675 -23.30918503 328.32353878 C-26.78324644 328.3921172 -30.25657827 328.44205549 -33.73106003 328.47978878 C-35.22857205 328.4997814 -36.72600723 328.5269852 -38.22324753 328.56182003 C-55.07106241 328.94370383 -55.07106241 328.94370383 -62.52207565 322.51396847 C-62.96809128 321.95580441 -63.4141069 321.39764034 -63.87363815 320.82256222 C-64.33512253 320.26697628 -64.7966069 319.71139034 -65.27207565 319.13896847 C-68.23909748 314.59394459 -68.75247272 310.67666314 -68.77279282 305.29672909 C-68.77802949 304.60798114 -68.78326617 303.91923319 -68.78866154 303.2096141 C-68.80362932 300.90825567 -68.80436597 298.60712022 -68.80503464 296.30571651 C-68.8126583 294.65295189 -68.82108616 293.00019081 -68.83025742 291.34743404 C-68.85218896 286.86179197 -68.86099951 282.37621807 -68.86608386 277.89052844 C-68.86972904 275.08648577 -68.87596994 272.2824609 -68.88308525 269.47842503 C-68.90757513 259.69151813 -68.92063064 249.9046642 -68.92417526 240.11772823 C-68.92781012 231.00234306 -68.95770307 221.88729467 -68.99957985 212.77201241 C-69.03429671 204.93999254 -69.04972394 197.10808421 -69.0504213 189.27598792 C-69.05121364 184.60091345 -69.05993253 179.92618213 -69.08841896 175.25118732 C-69.1146236 170.85236361 -69.11679164 166.45416696 -69.10076332 162.05530071 C-69.09895072 160.44447301 -69.10562255 158.83360905 -69.12158203 157.22285938 C-69.26888338 141.38562411 -69.26888338 141.38562411 -63.49863815 135.26006222 C-58.72336238 130.52090532 -54.83257187 128.03190948 -48.01408005 128.0334692 C-47.31289047 128.04379177 -46.6117009 128.05411434 -45.88926315 128.06474972 C-45.16245346 128.06757961 -44.43564377 128.07040951 -43.68680954 128.07332516 C-41.37391565 128.08448699 -39.06141427 128.1095837 -36.74863815 128.13506222 C-35.17702918 128.14509721 -33.60541411 128.15422215 -32.0337944 128.16240597 C-28.18859194 128.18441317 -24.34368151 128.21891506 -20.49863815 128.26006222 C-20.50232533 127.69021854 -20.5060125 127.12037487 -20.5098114 126.53326321 C-20.59829066 112.64409941 -20.66415426 98.75498523 -20.70588684 84.86559963 C-20.72647986 78.14867667 -20.75453749 71.43194226 -20.80039597 64.71514034 C-20.84390479 58.23122821 -20.86778629 51.74751179 -20.87814713 45.26346493 C-20.88552935 42.79156063 -20.89994507 40.31966686 -20.92155838 37.84784603 C-20.95065817 34.3815016 -20.95459125 30.91596256 -20.95273972 27.44951534 C-20.96712082 26.43099483 -20.98150192 25.41247433 -20.99631882 24.36308956 C-20.954728 17.15188179 -19.54625184 11.72204443 -14.71738815 6.23662472 C-14.15020065 5.79060909 -13.58301315 5.34459347 -12.99863815 4.88506222 C-12.43145065 4.42357784 -11.86426315 3.96209347 -11.27988815 3.48662472 C-7.43729755 0.84063031 -4.69888902 0.00942829 0 0 Z " fill="#4E4F4E" transform="translate(100.49863815307617,31.739937782287598)"/>
<path d="M0 0 C116.16 0 232.32 0 352 0 C352.103125 29.04 352.20625 58.08 352.3125 88 C352.38078003 101.75171875 352.38078003 101.75171875 352.45043945 115.78125 C352.47302246 126.98046875 352.47302246 126.98046875 352.47721863 132.22412109 C352.48187503 135.88475714 352.50060419 139.54503027 352.52787781 143.20556641 C352.56223067 147.8783059 352.57244552 152.55051936 352.56536138 157.22337341 C352.5668422 158.93610072 352.57672407 160.64884683 352.59607565 162.36146545 C352.77525204 178.99444877 352.77525204 178.99444877 347 185 C342.24800385 189.70568813 338.23811114 192.24654497 331.50136185 192.26006222 C330.37667787 192.26712781 329.25199389 192.2741934 328.09322858 192.2814731 C326.23956304 192.27785047 326.23956304 192.27785047 324.34844971 192.27415466 C323.03577267 192.27939134 321.72309564 192.28462802 320.37064052 192.29002339 C316.72379558 192.30421855 313.07703581 192.30586639 309.4301672 192.30542648 C305.49819611 192.30707336 301.56626025 192.3201375 297.63430786 192.33161926 C289.03510878 192.35447871 280.43593437 192.36239093 271.83670902 192.36744571 C266.46759994 192.37070171 261.09849803 192.37722361 255.72939301 192.3844471 C240.86466833 192.40401446 225.99995033 192.4204178 211.13521194 192.42332363 C210.1837941 192.4235112 209.23237626 192.42369877 208.25212757 192.42389202 C206.32335647 192.42425828 204.39458537 192.42462197 202.46581426 192.42498314 C201.0296405 192.42525735 201.0296405 192.42525735 199.56445312 192.42553711 C198.12652692 192.42580793 198.12652692 192.42580793 196.65955171 192.42608423 C181.12608522 192.42962596 165.59275736 192.45664764 150.05933896 192.494035 C134.11243126 192.5321105 118.16559235 192.55148105 102.21863818 192.55178314 C93.26457835 192.55236789 84.31068386 192.5608712 75.35666656 192.58978081 C67.73214055 192.61428462 60.10784019 192.62158442 52.48328546 192.60653328 C48.59358961 192.59936013 44.70433943 192.6002387 40.81469345 192.62294388 C36.59596242 192.64733391 32.37824697 192.63290962 28.15948486 192.61473083 C26.31920365 192.63453079 26.31920365 192.63453079 24.44174504 192.65473074 C16.43054244 192.57576564 11.21416494 191.21125475 5.48548627 185.48653215 C0.87913111 180.24179547 -0.25034958 176.74680271 -0.24050903 169.79937744 C-0.24222107 169.07491928 -0.24393311 168.35046112 -0.24569702 167.60404968 C-0.24900776 165.16855028 -0.23795994 162.73332584 -0.22705078 160.29785156 C-0.22643815 158.52518599 -0.22670503 156.75251993 -0.2277813 154.97985458 C-0.22823314 150.22925492 -0.21663461 145.47875584 -0.20256042 140.72817993 C-0.19117742 136.2717456 -0.19063456 131.81533584 -0.18920898 127.35888672 C-0.17871093 114.3225778 -0.15078867 101.28628763 -0.125 88.25 C-0.08375 59.1275 -0.0425 30.005 0 0 Z " fill="#E3E3E3" transform="translate(80,288)"/>
<path d="M0 0 C1.12468398 -0.00706559 2.24936796 -0.01413118 3.40813327 -0.02141088 C5.26179881 -0.01778826 5.26179881 -0.01778826 7.15291214 -0.01409245 C9.12192769 -0.02194746 9.12192769 -0.02194746 11.13072133 -0.02996117 C14.77756627 -0.04415633 18.42432604 -0.04580418 22.07119465 -0.04536426 C26.00316574 -0.04701115 29.9351016 -0.06007528 33.86705399 -0.07155704 C42.46625307 -0.09441649 51.06542748 -0.10232871 59.66465282 -0.10738349 C65.03376191 -0.11063949 70.40286381 -0.1171614 75.77196884 -0.12438488 C90.63669352 -0.14395225 105.50141152 -0.16035559 120.3661499 -0.16326141 C121.31756775 -0.16344898 122.26898559 -0.16363655 123.24923427 -0.16382981 C125.17800538 -0.16419606 127.10677648 -0.16455976 129.03554758 -0.16492092 C129.99299676 -0.16510373 130.95044594 -0.16528654 131.93690872 -0.16547489 C133.37483492 -0.16574572 133.37483492 -0.16574572 134.84181014 -0.16602201 C150.37527662 -0.16956374 165.90860448 -0.19658542 181.44202289 -0.23397278 C197.38893059 -0.27204828 213.33576949 -0.29141884 229.28272367 -0.29172093 C238.2367835 -0.29230568 247.19067799 -0.30080898 256.14469528 -0.32971859 C263.76922129 -0.3542224 271.39352166 -0.36152221 279.01807639 -0.34647106 C282.90777223 -0.33929791 286.79702241 -0.34017648 290.6866684 -0.36288166 C294.90539942 -0.38727169 299.12311488 -0.3728474 303.34187698 -0.35466862 C304.56873112 -0.36786858 305.79558527 -0.38106855 307.0596168 -0.39466852 C315.09285482 -0.31548622 320.22158956 1.08328124 326.01587558 6.73812968 C353.03973255 36.96885547 331.50136185 87.71150333 331.50136185 128.26006222 C215.34136185 128.26006222 99.18136185 128.26006222 -20.49863815 128.26006222 C-20.49863815 12.80392187 -20.49863815 12.80392187 -14.71738815 6.23662472 C-14.15020065 5.79060909 -13.58301315 5.34459347 -12.99863815 4.88506222 C-12.43145065 4.42357784 -11.86426315 3.96209347 -11.27988815 3.48662472 C-7.43729755 0.84063031 -4.69888902 0.00942829 0 0 Z " fill="#E4E4E4" transform="translate(100.49863815307617,31.739937782287598)"/>
<path d="M0 0 C132 0 264 0 400 0 C400 15.84 400 31.68 400 48 C392.08 48 384.16 48 376 48 C376 40.08 376 32.16 376 24 C259.84 24 143.68 24 24 24 C24 31.92 24 39.84 24 48 C16.08 48 8.16 48 0 48 C0 32.16 0 16.32 0 0 Z " fill="#3F3F3F" transform="translate(56,264)"/>
<path d="M0 0 C89.76 0 179.52 0 272 0 C272 7.92 272 15.84 272 24 C182.24 24 92.48 24 0 24 C0 16.08 0 8.16 0 0 Z " fill="#727272" transform="translate(120,320)"/>
<path d="M0 0 C76.56 0 153.12 0 232 0 C232 7.92 232 15.84 232 24 C155.44 24 78.88 24 0 24 C0 16.08 0 8.16 0 0 Z " fill="#727272" transform="translate(120,416)"/>
<path d="M0 0 C63.36 0 126.72 0 192 0 C192 7.92 192 15.84 192 24 C128.64 24 65.28 24 0 24 C0 16.08 0 8.16 0 0 Z " fill="#727272" transform="translate(120,368)"/>
<path d="M0 0 C0.70795881 -0.00380567 1.41591761 -0.00761134 2.14532971 -0.01153234 C4.52968518 -0.02188047 6.91380401 -0.01793606 9.29817581 -0.01409245 C11.02009542 -0.01854311 12.74201297 -0.02385658 14.46392751 -0.02996117 C19.20531877 -0.04417228 23.94664457 -0.04580387 28.68805408 -0.04536426 C33.79794617 -0.04700973 38.90781107 -0.06007119 44.01768875 -0.07155704 C55.19531812 -0.09442715 66.37292853 -0.10232981 77.55057812 -0.10738349 C84.5277796 -0.11063815 91.50497556 -0.11715923 98.48217392 -0.12438488 C117.79392062 -0.14395338 137.10566218 -0.16035614 156.41741943 -0.16326141 C157.65372796 -0.16344898 158.89003648 -0.16363655 160.1638089 -0.16382981 C162.67019288 -0.16419606 165.17657686 -0.16455976 167.68296084 -0.16492092 C168.92716159 -0.16510373 170.17136234 -0.16528654 171.45326614 -0.16547489 C172.69898263 -0.16565544 173.94469911 -0.16583599 175.22816458 -0.16602201 C195.41751575 -0.16956436 215.6067603 -0.19658946 235.79607448 -0.23397278 C256.51615285 -0.27203237 277.23617828 -0.29141872 297.95629239 -0.29172093 C309.59312125 -0.29230602 321.22982293 -0.30083172 332.86661911 -0.32971859 C342.77483283 -0.35420104 352.682873 -0.36153655 362.59110877 -0.34647106 C367.64731997 -0.33928937 372.70318825 -0.34021392 377.75936127 -0.36288166 C382.38834951 -0.38343559 387.0167304 -0.38090487 391.64571181 -0.36000682 C393.32002143 -0.35650505 394.99437456 -0.36145099 396.66862711 -0.37571125 C412.92054454 -0.50521044 412.92054454 -0.50521044 419.00209427 5.26006222 C423.00541619 9.20411971 425.85883323 13.053979 426.11537552 18.79521847 C426.12589128 21.28745395 426.0891431 23.76949835 426.00209427 26.26006222 C425.70818802 25.66064816 425.41428177 25.06123409 425.11146927 24.44365597 C421.79891437 17.9235215 417.86756488 12.59918338 410.75550741 10.13534194 C406.94761718 9.2473584 403.66428099 9.00831911 399.75998402 9.00558662 C399.06207067 9.00238015 398.36415732 8.99917367 397.64509508 8.99587002 C395.31296546 8.98758698 392.9810938 8.99348827 390.64896011 8.99936581 C388.9574504 8.99634435 387.26594206 8.9924549 385.57443613 8.98777324 C380.93102766 8.97748382 376.28769633 8.97967747 371.64428151 8.98395383 C366.63465295 8.98641932 361.62504304 8.97740913 356.6154213 8.96991634 C346.80314719 8.95716267 336.99090045 8.95537646 327.17861945 8.95771661 C319.20402285 8.95949907 311.22943455 8.95775166 303.25483894 8.95349216 C302.12019905 8.95289698 300.98555915 8.95230179 299.81653623 8.95168856 C297.51158282 8.95047682 295.2066294 8.94926269 292.90167599 8.94804619 C271.2828841 8.9371682 249.6641078 8.93933444 228.04531502 8.94543103 C208.26357396 8.95060119 188.48188212 8.93934258 168.7001508 8.92033281 C148.39130303 8.90096599 128.08247856 8.89269633 107.7736215 8.89645606 C96.37049994 8.89836976 84.96742029 8.89586404 73.56430626 8.88174152 C63.85748141 8.86984154 54.15072427 8.86840736 44.44389851 8.88053169 C39.49103804 8.8864299 34.53830151 8.88749376 29.58544922 8.87552929 C25.0510774 8.86470295 20.5169335 8.86773507 15.98257249 8.88179097 C14.34267728 8.88444686 12.70276439 8.88204348 11.06288648 8.87405511 C-2.41553728 8.75990553 -2.41553728 8.75990553 -14.31040573 14.57256222 C-17.0925488 17.35470529 -18.46725249 19.66302711 -19.99790573 23.26006222 C-20.65786872 24.59672638 -21.32324665 25.93075513 -21.99790573 27.26006222 C-22.52221385 20.26928731 -22.75563248 14.75058365 -18.49399948 8.94365597 C-13.00473574 2.76644272 -8.32099909 0.01284378 0 0 Z " fill="#5F5F5F" transform="translate(53.99790573120117,159.7399377822876)"/>
<path d="M0 0 C1.08515515 1.62773273 2.16646587 3.25818114 3.2265625 4.90234375 C3.68804687 5.57394531 4.14953125 6.24554688 4.625 6.9375 C5.07101563 7.60652344 5.51703125 8.27554687 5.9765625 8.96484375 C11.67257169 14.69384141 17.63739847 15.46331346 25.37075043 15.53497362 C26.58709419 15.52605073 27.80343796 15.51712785 29.05664062 15.50793457 C30.36456825 15.51417453 31.67249588 15.5204145 33.02005768 15.52684355 C36.63518253 15.54349105 40.24988323 15.53531169 43.86500931 15.52289867 C47.76965409 15.5138316 51.67422701 15.5278261 55.57885742 15.53881836 C63.22198374 15.55659053 70.86495281 15.55276943 78.50808525 15.5411678 C84.72065393 15.53212861 90.93317858 15.53091157 97.14575195 15.53526306 C98.47283479 15.53618246 98.47283479 15.53618246 99.82672739 15.53712043 C101.62410928 15.53839935 103.42149116 15.53969621 105.21887302 15.5410108 C122.06686062 15.55241278 138.91476111 15.53930889 155.76273441 15.51780933 C170.21426239 15.49993869 184.66566184 15.50304291 199.1171875 15.52148438 C215.90551621 15.54289783 232.69376861 15.55131418 249.48210907 15.53903532 C251.27282205 15.53776114 253.06353504 15.53650366 254.85424805 15.53526306 C255.73527773 15.53464596 256.61630742 15.53402886 257.52403498 15.53339306 C263.72803742 15.52994158 269.93199139 15.53576413 276.13598633 15.54518127 C283.69819515 15.55640792 291.26023792 15.55334726 298.82242775 15.5320583 C302.67967491 15.52155678 306.53664537 15.51741054 310.39389038 15.53065491 C314.57728687 15.54480175 318.7599867 15.52789293 322.94335938 15.50793457 C324.76787502 15.5213189 324.76787502 15.5213189 326.62924957 15.53497362 C334.36260153 15.46331346 340.32742831 14.69384141 346.0234375 8.96484375 C346.46945312 8.29582031 346.91546875 7.62679688 347.375 6.9375 C347.83648437 6.26589844 348.29796875 5.59429687 348.7734375 4.90234375 C349.17820312 4.27457031 349.58296875 3.64679688 350 3 C350.66 2.01 351.32 1.02 352 0 C352.63538732 6.09971826 352.05538499 10.14928254 348.49609375 15.2109375 C344.81023868 19.61856575 340.34243413 23.66716555 334.44773793 24.25415033 C332.98928177 24.25707671 332.98928177 24.25707671 331.50136185 24.26006222 C330.37667787 24.26712781 329.25199389 24.2741934 328.09322858 24.2814731 C326.23956304 24.27785047 326.23956304 24.27785047 324.34844971 24.27415466 C322.37943416 24.28200968 322.37943416 24.28200968 320.37064052 24.29002339 C316.72379558 24.30421855 313.07703581 24.30586639 309.4301672 24.30542648 C305.49819611 24.30707336 301.56626025 24.3201375 297.63430786 24.33161926 C289.03510878 24.35447871 280.43593437 24.36239093 271.83670902 24.36744571 C266.46759994 24.37070171 261.09849803 24.37722361 255.72939301 24.3844471 C240.86466833 24.40401446 225.99995033 24.4204178 211.13521194 24.42332363 C210.1837941 24.4235112 209.23237626 24.42369877 208.25212757 24.42389202 C206.32335647 24.42425828 204.39458537 24.42462197 202.46581426 24.42498314 C201.0296405 24.42525735 201.0296405 24.42525735 199.56445312 24.42553711 C198.12652692 24.42580793 198.12652692 24.42580793 196.65955171 24.42608423 C181.12608522 24.42962596 165.59275736 24.45664764 150.05933896 24.494035 C134.11243126 24.5321105 118.16559235 24.55148105 102.21863818 24.55178314 C93.26457835 24.55236789 84.31068386 24.5608712 75.35666656 24.58978081 C67.73214055 24.61428462 60.10784019 24.62158442 52.48328546 24.60653328 C48.59358961 24.59936013 44.70433943 24.6002387 40.81469345 24.62294388 C36.59596242 24.64733391 32.37824697 24.63290962 28.15948486 24.61473083 C26.31920365 24.63453079 26.31920365 24.63453079 24.44174504 24.65473074 C16.43054244 24.57576564 11.21416494 23.21125475 5.48548627 17.48653215 C1.77046556 13.2566574 -0.29118528 9.90029966 -0.125 4.25 C-0.10695313 3.45078125 -0.08890625 2.6515625 -0.0703125 1.828125 C-0.04710938 1.22484375 -0.02390625 0.6215625 0 0 Z " fill="#000000" transform="translate(80,456)"/>
<path d="M0 0 C0.72058594 -0.00708984 1.44117187 -0.01417969 2.18359375 -0.02148438 C7.3071388 0.03873813 10.95202859 1.06092848 15.5 3.4375 C21.36445301 9.61060843 20.92002987 16.21359926 20.76953125 24.2421875 C20.51166804 30.00155594 19.2990957 33.81947788 15.05078125 37.79296875 C10.43682251 40.83092361 5.2921413 40.84076059 -0.0625 40.9375 C-0.78268311 40.95619141 -1.50286621 40.97488281 -2.24487305 40.99414062 C-7.73193041 40.92885588 -10.9867432 39.56857191 -15.5 36.4375 C-19.69035274 31.49965043 -19.89343968 26.10710305 -20 19.875 C-20.01861084 19.15481689 -20.03722168 18.43463379 -20.05639648 17.69262695 C-19.99477952 12.46355986 -18.94491293 8.46644944 -15.5 4.4375 C-10.77083945 0.37981962 -6.04582508 -0.16763916 0 0 Z " fill="#75FD03" transform="translate(75.5,183.5625)"/>
<path d="M0 0 C0.33 0 0.66 0 1 0 C1.54943348 6.5932018 0.92592974 11.54731981 -3 17 C-7.47967477 21.78751972 -11.80928122 24.79331556 -18.50512695 25.22705078 C-20.47678833 25.21134033 -20.47678833 25.21134033 -22.48828125 25.1953125 C-23.19147995 25.1924826 -23.89467865 25.18965271 -24.6191864 25.18673706 C-26.85046892 25.17560151 -29.08134017 25.15050997 -31.3125 25.125 C-32.83137438 25.1149616 -34.3502551 25.10583726 -35.86914062 25.09765625 C-39.57955921 25.07568413 -43.28973942 25.04120047 -47 25 C-47 22.36 -47 19.72 -47 17 C-46.07775635 16.99589111 -45.1555127 16.99178223 -44.20532227 16.98754883 C-40.74362908 16.96038381 -37.28365136 16.91110948 -33.82250977 16.84741211 C-32.33205888 16.82438797 -30.8414489 16.80987337 -29.35083008 16.80444336 C-16.81061456 16.83636422 -16.81061456 16.83636422 -6 11 C-3.26474981 7.52525351 -1.39815083 4.19445249 0 0 Z " fill="#000000" transform="translate(479,335)"/>
<path d="M0 0 C1.07031153 1.60546729 2.12675472 3.22365779 3.078125 4.90234375 C6.33285722 10.5547287 9.64536356 13.88178785 16 16 C18.43780377 16.15269181 20.85283901 16.25682697 23.29296875 16.31640625 C23.99899734 16.33718735 24.70502594 16.35796844 25.43244934 16.37937927 C27.68403551 16.44467491 29.93573662 16.50366647 32.1875 16.5625 C33.7155066 16.60570425 35.24350164 16.64931916 36.77148438 16.69335938 C40.51420562 16.80033574 44.2570423 16.90165922 48 17 C48 19.64 48 22.28 48 25 C43.58925296 25.09961729 39.17911905 25.17181669 34.76757812 25.21972656 C33.2700661 25.23971919 31.77263092 25.26692299 30.27539062 25.30175781 C13.42757574 25.68364162 13.42757574 25.68364162 5.9765625 19.25390625 C0.80757299 12.78519973 -0.32296381 8.23557723 0 0 Z " fill="#000000" transform="translate(32,335)"/>
<path d="M0 0 C0.72058594 -0.00708984 1.44117187 -0.01417969 2.18359375 -0.02148438 C7.3071388 0.03873813 10.95202859 1.06092848 15.5 3.4375 C20.45603611 8.65438012 20.61228505 12.58811197 20.5 19.4375 C20.0875 18.86 19.675 18.2825 19.25 17.6875 C16.05879003 13.58451575 13.51625684 11.01016431 8.5 9.4375 C5.66073002 9.19669406 2.96186306 9.06745955 0.125 9.0625 C-0.60460937 9.03800781 -1.33421875 9.01351562 -2.0859375 8.98828125 C-7.67122137 8.95836009 -10.9281519 10.20417777 -15.5 13.4375 C-17.46183059 16.52130786 -17.46183059 16.52130786 -18.5 19.4375 C-18.83 19.4375 -19.16 19.4375 -19.5 19.4375 C-19.87009696 14.16361828 -19.59315239 10.71918349 -17.05859375 6.078125 C-12.05372071 0.80983759 -6.92578444 -0.19203875 0 0 Z " fill="#8FFB34" transform="translate(75.5,183.5625)"/>
<path d="M0 0 C1.8563973 1.8563973 3.68885543 3.7232982 5.5 5.625 C10.49690593 10.37206063 17.29424875 9.38874441 23.80078125 9.28125 C28.81678359 9.05993951 31.92476841 8.01567137 36 5 C37.93694583 2.41796279 37.93694583 2.41796279 39 0 C39.33 0 39.66 0 40 0 C40.57253501 5.49633606 39.5471512 8.51772679 36.6796875 13.203125 C33.29924356 16.81941387 29.56521239 18.13626251 24.72265625 18.43359375 C23.16936439 18.4506918 21.61582124 18.4516797 20.0625 18.4375 C19.28970703 18.45748047 18.51691406 18.47746094 17.72070312 18.49804688 C12.01788988 18.49322624 8.64952815 17.33706641 4 14 C0.6348848 9.83366689 -0.53257716 5.32577155 0 0 Z " fill="#3F413E" transform="translate(56,214)"/>
</svg>
